<mxfile host="app.diagrams.net" modified="2023-10-03T10:53:25.235Z" agent="Mozilla/5.0 (Macintosh; Intel Mac OS X 10_15_7) AppleWebKit/605.1.15 (KHTML, like Gecko) Version/17.0 Safari/605.1.15" etag="4r8oXG2OuUOhN7R3-YlG" version="22.0.1" type="github">
  <diagram name="Page-1" id="90a13364-a465-7bf4-72fc-28e22215d7a0">
    <mxGraphModel dx="1354" dy="1349" grid="1" gridSize="10" guides="1" tooltips="1" connect="1" arrows="1" fold="1" page="1" pageScale="1.5" pageWidth="1169" pageHeight="826" background="none" math="0" shadow="0">
      <root>
        <mxCell id="0" style=";html=1;" />
        <mxCell id="1" style=";html=1;" parent="0" />
        <mxCell id="3a17f1ce550125da-1" value="OEE" style="whiteSpace=wrap;html=1;shadow=1;fontSize=20;fillColor=#f5f5f5;strokeColor=#666666;strokeWidth=2;dashed=1;" parent="1" vertex="1">
          <mxGeometry x="980" y="540" width="150" height="60" as="geometry" />
        </mxCell>
        <mxCell id="3a17f1ce550125da-13" style="edgeStyle=elbowEdgeStyle;rounded=0;html=1;startArrow=none;startFill=0;jettySize=auto;orthogonalLoop=1;fontSize=18;elbow=vertical;" parent="1" source="3a17f1ce550125da-2" target="3a17f1ce550125da-4" edge="1">
          <mxGeometry relative="1" as="geometry" />
        </mxCell>
        <mxCell id="3a17f1ce550125da-14" style="edgeStyle=elbowEdgeStyle;rounded=0;html=1;startArrow=none;startFill=0;jettySize=auto;orthogonalLoop=1;fontSize=18;elbow=vertical;" parent="1" source="3a17f1ce550125da-2" target="3a17f1ce550125da-5" edge="1">
          <mxGeometry relative="1" as="geometry" />
        </mxCell>
        <mxCell id="3a17f1ce550125da-15" style="edgeStyle=elbowEdgeStyle;rounded=0;html=1;startArrow=none;startFill=0;jettySize=auto;orthogonalLoop=1;fontSize=18;elbow=vertical;" parent="1" source="3a17f1ce550125da-2" target="3a17f1ce550125da-6" edge="1">
          <mxGeometry relative="1" as="geometry" />
        </mxCell>
        <mxCell id="3a17f1ce550125da-16" style="edgeStyle=elbowEdgeStyle;rounded=0;html=1;startArrow=none;startFill=0;jettySize=auto;orthogonalLoop=1;fontSize=18;elbow=vertical;" parent="1" source="3a17f1ce550125da-2" target="3a17f1ce550125da-7" edge="1">
          <mxGeometry relative="1" as="geometry" />
        </mxCell>
        <mxCell id="3a17f1ce550125da-17" style="edgeStyle=elbowEdgeStyle;rounded=0;html=1;startArrow=none;startFill=0;jettySize=auto;orthogonalLoop=1;fontSize=18;" parent="1" source="3a17f1ce550125da-10" target="3a17f1ce550125da-2" edge="1">
          <mxGeometry relative="1" as="geometry">
            <Array as="points">
              <mxPoint x="1090" y="950" />
            </Array>
          </mxGeometry>
        </mxCell>
        <mxCell id="3a17f1ce550125da-2" value="Sepasoft OEE&lt;div&gt;&lt;br&gt;&lt;/div&gt;&lt;div&gt;(State, Mode, mixer, amps, attenu, splitters)&lt;/div&gt;" style="whiteSpace=wrap;html=1;shadow=1;fontSize=18;fillColor=#f5f5f5;strokeColor=#666666;" parent="1" vertex="1">
          <mxGeometry x="973" y="650" width="167" height="280" as="geometry" />
        </mxCell>
        <mxCell id="3a17f1ce550125da-4" value="Spectrum Analyzer" style="whiteSpace=wrap;html=1;shadow=1;fontSize=18;fillColor=#f5f5f5;strokeColor=#666666;" parent="1" vertex="1">
          <mxGeometry x="1220" y="640" width="120" height="60" as="geometry" />
        </mxCell>
        <mxCell id="3a17f1ce550125da-5" value="Network Analyzer" style="whiteSpace=wrap;html=1;shadow=1;fontSize=18;fillColor=#f5f5f5;strokeColor=#666666;" parent="1" vertex="1">
          <mxGeometry x="1220" y="720" width="120" height="60" as="geometry" />
        </mxCell>
        <mxCell id="3a17f1ce550125da-6" value="Power Meter" style="whiteSpace=wrap;html=1;shadow=1;fontSize=18;fillColor=#f5f5f5;strokeColor=#666666;" parent="1" vertex="1">
          <mxGeometry x="1220" y="800" width="120" height="60" as="geometry" />
        </mxCell>
        <mxCell id="3a17f1ce550125da-7" value="Freq. Count" style="whiteSpace=wrap;html=1;shadow=1;fontSize=18;fillColor=#f5f5f5;strokeColor=#666666;" parent="1" vertex="1">
          <mxGeometry x="1220" y="880" width="120" height="60" as="geometry" />
        </mxCell>
        <mxCell id="3a17f1ce550125da-20" style="edgeStyle=elbowEdgeStyle;rounded=0;html=1;startArrow=none;startFill=0;jettySize=auto;orthogonalLoop=1;fontSize=18;elbow=vertical;" parent="1" source="3a17f1ce550125da-8" target="3a17f1ce550125da-2" edge="1">
          <mxGeometry relative="1" as="geometry">
            <Array as="points">
              <mxPoint x="940" y="710" />
            </Array>
          </mxGeometry>
        </mxCell>
        <mxCell id="3a17f1ce550125da-8" value="SCADA" style="whiteSpace=wrap;html=1;shadow=1;fontSize=18;fillColor=#f5f5f5;strokeColor=#666666;" parent="1" vertex="1">
          <mxGeometry x="780" y="640" width="120" height="150" as="geometry" />
        </mxCell>
        <mxCell id="3a17f1ce550125da-21" style="edgeStyle=elbowEdgeStyle;rounded=0;html=1;startArrow=none;startFill=0;jettySize=auto;orthogonalLoop=1;fontSize=18;elbow=vertical;" parent="1" source="3a17f1ce550125da-9" target="3a17f1ce550125da-2" edge="1">
          <mxGeometry relative="1" as="geometry" />
        </mxCell>
        <mxCell id="3a17f1ce550125da-9" value="ARB / Mod Source" style="whiteSpace=wrap;html=1;shadow=1;fontSize=18;fillColor=#f5f5f5;strokeColor=#666666;" parent="1" vertex="1">
          <mxGeometry x="780" y="830" width="120" height="60" as="geometry" />
        </mxCell>
        <mxCell id="3a17f1ce550125da-10" value="DUT" style="whiteSpace=wrap;html=1;shadow=1;fontSize=18;fillColor=#f5f5f5;strokeColor=#666666;" parent="1" vertex="1">
          <mxGeometry x="982.5" y="970" width="145" height="120" as="geometry" />
        </mxCell>
        <mxCell id="3a17f1ce550125da-18" style="edgeStyle=elbowEdgeStyle;rounded=0;html=1;startArrow=none;startFill=0;jettySize=auto;orthogonalLoop=1;fontSize=18;elbow=vertical;" parent="1" source="3a17f1ce550125da-11" target="3a17f1ce550125da-10" edge="1">
          <mxGeometry relative="1" as="geometry" />
        </mxCell>
        <mxCell id="3a17f1ce550125da-11" value="DC Power Supplies" style="whiteSpace=wrap;html=1;shadow=1;fontSize=18;fillColor=#f5f5f5;strokeColor=#666666;" parent="1" vertex="1">
          <mxGeometry x="780" y="1000" width="120" height="60" as="geometry" />
        </mxCell>
        <mxCell id="3a17f1ce550125da-22" style="edgeStyle=elbowEdgeStyle;rounded=0;html=1;startArrow=none;startFill=0;jettySize=auto;orthogonalLoop=1;fontSize=18;" parent="1" source="3a17f1ce550125da-10" target="3a17f1ce550125da-2" edge="1">
          <mxGeometry relative="1" as="geometry">
            <mxPoint x="1120" y="980" as="sourcePoint" />
            <mxPoint x="1120" y="940" as="targetPoint" />
            <Array as="points">
              <mxPoint x="1110" y="950" />
              <mxPoint x="1090" y="950" />
            </Array>
          </mxGeometry>
        </mxCell>
        <mxCell id="3a17f1ce550125da-23" style="edgeStyle=elbowEdgeStyle;rounded=0;html=1;startArrow=none;startFill=0;jettySize=auto;orthogonalLoop=1;fontSize=18;" parent="1" edge="1">
          <mxGeometry relative="1" as="geometry">
            <mxPoint x="1070" y="970" as="sourcePoint" />
            <mxPoint x="1070" y="930" as="targetPoint" />
            <Array as="points">
              <mxPoint x="1070" y="950" />
              <mxPoint x="1070" y="950" />
            </Array>
          </mxGeometry>
        </mxCell>
        <mxCell id="3a17f1ce550125da-24" style="edgeStyle=elbowEdgeStyle;rounded=0;html=1;startArrow=none;startFill=0;jettySize=auto;orthogonalLoop=1;fontSize=18;" parent="1" edge="1">
          <mxGeometry relative="1" as="geometry">
            <mxPoint x="1040" y="930" as="sourcePoint" />
            <mxPoint x="1040" y="970" as="targetPoint" />
            <Array as="points">
              <mxPoint x="1040" y="950" />
              <mxPoint x="1070" y="960" />
            </Array>
          </mxGeometry>
        </mxCell>
        <mxCell id="3a17f1ce550125da-25" style="edgeStyle=elbowEdgeStyle;rounded=0;html=1;startArrow=none;startFill=0;jettySize=auto;orthogonalLoop=1;fontSize=18;" parent="1" edge="1">
          <mxGeometry relative="1" as="geometry">
            <mxPoint x="1020" y="930" as="sourcePoint" />
            <mxPoint x="1020" y="970" as="targetPoint" />
            <Array as="points">
              <mxPoint x="1020" y="950" />
              <mxPoint x="1050" y="960" />
            </Array>
          </mxGeometry>
        </mxCell>
        <mxCell id="3a17f1ce550125da-26" style="edgeStyle=elbowEdgeStyle;rounded=0;html=1;startArrow=none;startFill=0;jettySize=auto;orthogonalLoop=1;fontSize=18;" parent="1" edge="1">
          <mxGeometry relative="1" as="geometry">
            <mxPoint x="1000" y="930" as="sourcePoint" />
            <mxPoint x="1000" y="970" as="targetPoint" />
            <Array as="points">
              <mxPoint x="1000" y="950" />
              <mxPoint x="1030" y="960" />
            </Array>
          </mxGeometry>
        </mxCell>
        <mxCell id="5pPigE-QQ9vPAHt9I9ky-1" value="Theoretical Production Time" style="rounded=0;whiteSpace=wrap;html=1;fontSize=16;fillColor=#0050ef;fontColor=#ffffff;strokeColor=#001DBC;" vertex="1" parent="1">
          <mxGeometry x="30" y="20" width="600" height="60" as="geometry" />
        </mxCell>
        <mxCell id="5pPigE-QQ9vPAHt9I9ky-2" value="Planned Production Time" style="rounded=0;whiteSpace=wrap;html=1;fontSize=16;fillColor=#0050ef;fontColor=#ffffff;strokeColor=#001DBC;" vertex="1" parent="1">
          <mxGeometry x="30" y="87" width="490" height="60" as="geometry" />
        </mxCell>
        <mxCell id="5pPigE-QQ9vPAHt9I9ky-3" value="Operating Time&amp;nbsp;" style="rounded=0;whiteSpace=wrap;html=1;fontSize=16;fillColor=#0050ef;fontColor=#ffffff;strokeColor=#001DBC;" vertex="1" parent="1">
          <mxGeometry x="30" y="155" width="380" height="60" as="geometry" />
        </mxCell>
        <mxCell id="5pPigE-QQ9vPAHt9I9ky-4" value="Time used to produce Good Products&amp;nbsp;" style="rounded=0;whiteSpace=wrap;html=1;fontSize=16;fillColor=#0050ef;fontColor=#ffffff;strokeColor=#001DBC;spacingLeft=25;spacingBottom=0;spacingRight=25;" vertex="1" parent="1">
          <mxGeometry x="30" y="222" width="230" height="60" as="geometry" />
        </mxCell>
        <mxCell id="5pPigE-QQ9vPAHt9I9ky-5" value="Time producing good Quality products" style="rounded=0;whiteSpace=wrap;html=1;fontSize=16;fillColor=#0050ef;fontColor=#ffffff;strokeColor=#001DBC;spacingLeft=0;spacingRight=0;" vertex="1" parent="1">
          <mxGeometry x="30" y="288" width="190" height="60" as="geometry" />
        </mxCell>
        <mxCell id="5pPigE-QQ9vPAHt9I9ky-20" style="edgeStyle=none;rounded=0;orthogonalLoop=1;jettySize=auto;html=1;exitX=1;exitY=0.5;exitDx=0;exitDy=0;entryX=0;entryY=0.5;entryDx=0;entryDy=0;fontSize=12;startSize=2;endSize=2;" edge="1" parent="1" source="5pPigE-QQ9vPAHt9I9ky-6" target="5pPigE-QQ9vPAHt9I9ky-10">
          <mxGeometry relative="1" as="geometry" />
        </mxCell>
        <mxCell id="5pPigE-QQ9vPAHt9I9ky-21" style="edgeStyle=none;shape=connector;rounded=0;orthogonalLoop=1;jettySize=auto;html=1;exitX=1;exitY=0.5;exitDx=0;exitDy=0;entryX=0;entryY=0.5;entryDx=0;entryDy=0;labelBackgroundColor=default;strokeColor=default;align=center;verticalAlign=middle;fontFamily=Helvetica;fontSize=12;fontColor=default;endArrow=classic;startSize=2;endSize=2;" edge="1" parent="1" source="5pPigE-QQ9vPAHt9I9ky-6" target="5pPigE-QQ9vPAHt9I9ky-11">
          <mxGeometry relative="1" as="geometry" />
        </mxCell>
        <mxCell id="5pPigE-QQ9vPAHt9I9ky-6" value="Planned Downtimes" style="rounded=0;whiteSpace=wrap;html=1;fontSize=16;fillColor=#fa6800;strokeColor=#C73500;fontColor=#FFFFFF;" vertex="1" parent="1">
          <mxGeometry x="530" y="87" width="100" height="60" as="geometry" />
        </mxCell>
        <mxCell id="5pPigE-QQ9vPAHt9I9ky-23" style="edgeStyle=none;shape=connector;rounded=0;orthogonalLoop=1;jettySize=auto;html=1;exitX=1;exitY=0.5;exitDx=0;exitDy=0;entryX=0;entryY=0.5;entryDx=0;entryDy=0;labelBackgroundColor=default;strokeColor=default;align=center;verticalAlign=middle;fontFamily=Helvetica;fontSize=12;fontColor=default;endArrow=classic;startSize=2;endSize=2;" edge="1" parent="1" source="5pPigE-QQ9vPAHt9I9ky-7" target="5pPigE-QQ9vPAHt9I9ky-13">
          <mxGeometry relative="1" as="geometry" />
        </mxCell>
        <mxCell id="5pPigE-QQ9vPAHt9I9ky-7" value="Unplanned Downtimes" style="rounded=0;whiteSpace=wrap;html=1;fontSize=16;fillColor=#fa6800;strokeColor=#C73500;fontColor=#FFFFFF;" vertex="1" parent="1">
          <mxGeometry x="420" y="155" width="100" height="60" as="geometry" />
        </mxCell>
        <mxCell id="5pPigE-QQ9vPAHt9I9ky-24" style="edgeStyle=none;shape=connector;rounded=0;orthogonalLoop=1;jettySize=auto;html=1;exitX=1;exitY=0.5;exitDx=0;exitDy=0;entryX=0;entryY=0.5;entryDx=0;entryDy=0;labelBackgroundColor=default;strokeColor=default;align=center;verticalAlign=middle;fontFamily=Helvetica;fontSize=12;fontColor=default;endArrow=classic;startSize=2;endSize=2;" edge="1" parent="1" source="5pPigE-QQ9vPAHt9I9ky-8" target="5pPigE-QQ9vPAHt9I9ky-15">
          <mxGeometry relative="1" as="geometry" />
        </mxCell>
        <mxCell id="5pPigE-QQ9vPAHt9I9ky-25" style="edgeStyle=none;shape=connector;rounded=0;orthogonalLoop=1;jettySize=auto;html=1;exitX=1;exitY=0.5;exitDx=0;exitDy=0;entryX=0;entryY=0.5;entryDx=0;entryDy=0;labelBackgroundColor=default;strokeColor=default;align=center;verticalAlign=middle;fontFamily=Helvetica;fontSize=12;fontColor=default;endArrow=classic;startSize=2;endSize=2;" edge="1" parent="1" source="5pPigE-QQ9vPAHt9I9ky-8" target="5pPigE-QQ9vPAHt9I9ky-16">
          <mxGeometry relative="1" as="geometry" />
        </mxCell>
        <mxCell id="5pPigE-QQ9vPAHt9I9ky-8" value="Performance losses" style="rounded=0;whiteSpace=wrap;html=1;fontSize=16;fillColor=#fa6800;strokeColor=#C73500;fontColor=#FFFFFF;" vertex="1" parent="1">
          <mxGeometry x="270" y="222" width="100" height="60" as="geometry" />
        </mxCell>
        <mxCell id="5pPigE-QQ9vPAHt9I9ky-26" style="edgeStyle=none;shape=connector;rounded=0;orthogonalLoop=1;jettySize=auto;html=1;exitX=1;exitY=0.5;exitDx=0;exitDy=0;entryX=0;entryY=0.5;entryDx=0;entryDy=0;labelBackgroundColor=default;strokeColor=default;align=center;verticalAlign=middle;fontFamily=Helvetica;fontSize=12;fontColor=default;endArrow=classic;startSize=2;endSize=2;" edge="1" parent="1" source="5pPigE-QQ9vPAHt9I9ky-9" target="5pPigE-QQ9vPAHt9I9ky-17">
          <mxGeometry relative="1" as="geometry" />
        </mxCell>
        <mxCell id="5pPigE-QQ9vPAHt9I9ky-27" style="edgeStyle=none;shape=connector;rounded=0;orthogonalLoop=1;jettySize=auto;html=1;exitX=1;exitY=0.5;exitDx=0;exitDy=0;entryX=0;entryY=0.5;entryDx=0;entryDy=0;labelBackgroundColor=default;strokeColor=default;align=center;verticalAlign=middle;fontFamily=Helvetica;fontSize=12;fontColor=default;endArrow=classic;startSize=2;endSize=2;" edge="1" parent="1" source="5pPigE-QQ9vPAHt9I9ky-9" target="5pPigE-QQ9vPAHt9I9ky-18">
          <mxGeometry relative="1" as="geometry" />
        </mxCell>
        <mxCell id="5pPigE-QQ9vPAHt9I9ky-9" value="Quality losses" style="rounded=0;whiteSpace=wrap;html=1;fontSize=16;fillColor=#fa6800;strokeColor=#C73500;fontColor=#FFFFFF;" vertex="1" parent="1">
          <mxGeometry x="230" y="290" width="100" height="60" as="geometry" />
        </mxCell>
        <mxCell id="5pPigE-QQ9vPAHt9I9ky-10" value="&lt;font style=&quot;font-size: 11px;&quot;&gt;No Orders&lt;/font&gt;" style="rounded=1;whiteSpace=wrap;html=1;fontSize=11;fillColor=#f0a30a;fontColor=#FFFFFF;strokeColor=#BD7000;spacing=0;spacingBottom=0;" vertex="1" parent="1">
          <mxGeometry x="670" y="77" width="110" height="32" as="geometry" />
        </mxCell>
        <mxCell id="5pPigE-QQ9vPAHt9I9ky-11" value="&lt;font style=&quot;font-size: 11px;&quot;&gt;Projects, Trials, Company Training&lt;/font&gt;" style="rounded=1;whiteSpace=wrap;html=1;fontSize=11;fillColor=#f0a30a;fontColor=#FFFFFF;strokeColor=#BD7000;spacing=0;spacingBottom=0;" vertex="1" parent="1">
          <mxGeometry x="670" y="112" width="110" height="32" as="geometry" />
        </mxCell>
        <mxCell id="5pPigE-QQ9vPAHt9I9ky-12" value="&lt;font style=&quot;font-size: 11px;&quot;&gt;Failures &amp;amp; Breakdowns&lt;/font&gt;" style="rounded=1;whiteSpace=wrap;html=1;fontSize=11;fillColor=#f0a30a;fontColor=#FFFFFF;strokeColor=#BD7000;spacing=0;spacingBottom=0;" vertex="1" parent="1">
          <mxGeometry x="670" y="151" width="110" height="32" as="geometry" />
        </mxCell>
        <mxCell id="5pPigE-QQ9vPAHt9I9ky-13" value="&lt;font style=&quot;font-size: 11px;&quot;&gt;Setup &amp;amp; Adjustments&lt;/font&gt;" style="rounded=1;whiteSpace=wrap;html=1;fontSize=11;fillColor=#f0a30a;fontColor=#FFFFFF;strokeColor=#BD7000;spacing=0;spacingBottom=0;spacingRight=10;spacingLeft=10;" vertex="1" parent="1">
          <mxGeometry x="670" y="188" width="110" height="32" as="geometry" />
        </mxCell>
        <mxCell id="5pPigE-QQ9vPAHt9I9ky-15" value="&lt;font style=&quot;font-size: 11px;&quot;&gt;Idle Time handover procedures&amp;nbsp;&lt;/font&gt;" style="rounded=1;whiteSpace=wrap;html=1;fontSize=11;fillColor=#f0a30a;fontColor=#FFFFFF;strokeColor=#BD7000;spacing=0;spacingBottom=0;" vertex="1" parent="1">
          <mxGeometry x="670" y="228" width="110" height="32" as="geometry" />
        </mxCell>
        <mxCell id="5pPigE-QQ9vPAHt9I9ky-16" value="&lt;font style=&quot;font-size: 11px;&quot;&gt;Speed Reduced&amp;nbsp;&lt;/font&gt;" style="rounded=1;whiteSpace=wrap;html=1;fontSize=11;fillColor=#f0a30a;fontColor=#FFFFFF;strokeColor=#BD7000;spacing=0;spacingBottom=0;" vertex="1" parent="1">
          <mxGeometry x="670" y="265" width="110" height="32" as="geometry" />
        </mxCell>
        <mxCell id="5pPigE-QQ9vPAHt9I9ky-17" value="&lt;font style=&quot;font-size: 11px;&quot;&gt;Defects in process&amp;nbsp;&lt;/font&gt;" style="rounded=1;whiteSpace=wrap;html=1;fontSize=11;fillColor=#f0a30a;fontColor=#FFFFFF;strokeColor=#BD7000;spacing=0;spacingBottom=0;spacingLeft=10;spacingRight=10;" vertex="1" parent="1">
          <mxGeometry x="670" y="302" width="110" height="32" as="geometry" />
        </mxCell>
        <mxCell id="5pPigE-QQ9vPAHt9I9ky-18" value="&lt;font style=&quot;font-size: 11px;&quot;&gt;Defects in Materials&amp;nbsp;&lt;/font&gt;" style="rounded=1;whiteSpace=wrap;html=1;fontSize=11;fillColor=#f0a30a;fontColor=#FFFFFF;strokeColor=#BD7000;spacing=0;spacingBottom=0;spacingLeft=10;spacingRight=10;" vertex="1" parent="1">
          <mxGeometry x="670" y="340" width="110" height="32" as="geometry" />
        </mxCell>
        <mxCell id="5pPigE-QQ9vPAHt9I9ky-22" style="edgeStyle=none;shape=connector;rounded=0;orthogonalLoop=1;jettySize=auto;html=1;exitX=1;exitY=0.5;exitDx=0;exitDy=0;entryX=-0.041;entryY=0.437;entryDx=0;entryDy=0;entryPerimeter=0;labelBackgroundColor=default;strokeColor=default;align=center;verticalAlign=middle;fontFamily=Helvetica;fontSize=12;fontColor=default;endArrow=classic;startSize=2;endSize=2;" edge="1" parent="1" source="5pPigE-QQ9vPAHt9I9ky-7" target="5pPigE-QQ9vPAHt9I9ky-12">
          <mxGeometry relative="1" as="geometry" />
        </mxCell>
        <mxCell id="5pPigE-QQ9vPAHt9I9ky-28" value="" style="verticalLabelPosition=bottom;verticalAlign=top;html=1;shape=mxgraph.basic.diag_snip_rect;dx=6;whiteSpace=wrap;fontFamily=Helvetica;fontSize=12;fontColor=default;" vertex="1" parent="1">
          <mxGeometry x="827" y="98" width="100" height="60" as="geometry" />
        </mxCell>
      </root>
    </mxGraphModel>
  </diagram>
</mxfile>
